<svg width="221" height="54" viewBox="0 0 221 54" fill="none" xmlns="http://www.w3.org/2000/svg">
<path d="M29.7189 16.9514V35.8535H25.0945C26.8832 30.6943 26.9731 26.1957 26.9731 26.1508V25.8497L26.6765 25.8362C25.135 25.7688 23.8767 25.9935 23.0857 26.1912L29.7189 16.9514Z" fill="url(#paint0_linear_6_3726)"/>
<path d="M59.4386 51.8927C33.6022 53.5466 33.1798 26.4518 33.1798 26.4518C35.7638 26.3394 37.548 27.072 37.548 27.072L29.7193 16.1604L21.8906 27.072C21.8906 27.072 23.6793 26.3439 26.2634 26.4518C26.2634 26.4518 25.8364 53.5466 0 51.8927L25.2118 4.77237C25.2118 4.77237 26.6768 1.5591 29.7103 1.59056H29.7238C32.7573 1.5591 34.2224 4.77237 34.2224 4.77237L59.4386 51.8882V51.8927Z" fill="#EC751E"/>
<path d="M26.25 26.4742C26.25 26.4742 26.0702 37.8173 18.9426 45.3763L21.8773 27.0899H21.8817C21.9806 27.0495 23.7378 26.3664 26.25 26.4697V26.4742Z" fill="url(#paint1_linear_6_3726)"/>
<path d="M33.063 26.4742C33.063 26.4742 33.2427 37.8173 40.3704 45.3763L37.4357 27.0899H37.4312C37.3324 27.0495 35.5752 26.3664 33.063 26.4697V26.4742Z" fill="url(#paint2_linear_6_3726)"/>
<path d="M83.2005 4.23337C83.214 4.139 83.2679 4.03563 83.3533 3.92328C83.4387 3.81093 83.5465 3.70757 83.6724 3.61319C83.7982 3.51882 83.933 3.44242 84.0768 3.38849C84.2207 3.33456 84.3555 3.3031 84.4813 3.3031H90.5618C90.8314 3.3031 91.0606 3.38849 91.2494 3.55477C91.4381 3.72105 91.582 3.86935 91.6763 3.99519L92.2695 5.34791L104.741 37.5165C104.866 37.8356 104.844 38.0917 104.669 38.2895C104.493 38.4872 104.192 38.5861 103.765 38.5861H96.9479C96.5839 38.5861 96.3007 38.5187 96.103 38.3839C95.9053 38.249 95.7525 38.0243 95.6401 37.7052C95.321 36.8963 95.0154 36.0919 94.7143 35.2919C94.4132 34.492 94.1121 33.6875 93.811 32.8786H81.1961C80.895 33.6875 80.5894 34.492 80.2794 35.2919C79.9693 36.0919 79.6637 36.8963 79.3626 37.7052C79.1558 38.2895 78.7514 38.5861 78.1492 38.5861H71.1564C70.8553 38.5861 70.6081 38.5052 70.4059 38.3479C70.2081 38.1906 70.1722 37.9524 70.298 37.6333L83.2005 4.22888V4.23337ZM87.5238 14.4035C87.2227 15.2124 86.9171 16.0842 86.607 17.019C86.2969 17.9538 85.9913 18.8975 85.6902 19.8458C85.3891 20.7985 85.0835 21.7333 84.7734 22.6591C84.4633 23.5849 84.1577 24.4522 83.8566 25.2611H91.1505L87.5148 14.4035H87.5238Z" fill="#1D1D1B"/>
<path d="M102.826 10.7632C102.507 10.1116 102.448 9.55883 102.646 9.10043C102.844 8.64204 103.316 8.41284 104.062 8.41284H110.142C110.556 8.41284 110.915 8.52519 111.225 8.7454C111.535 8.96561 111.751 9.28469 111.877 9.69815C112.147 10.5385 112.443 11.4778 112.767 12.5249C113.09 13.572 113.432 14.6416 113.787 15.7427C114.142 16.8437 114.497 17.9358 114.843 19.0234C115.189 20.1064 115.513 21.1041 115.805 22.0164C116.097 22.9287 116.358 23.7197 116.591 24.3938C116.821 25.0679 116.991 25.5443 117.104 25.8319L122.142 9.69815C122.348 9.19032 122.582 8.84877 122.843 8.67799C123.103 8.50272 123.472 8.41733 123.948 8.41733H130.195C130.653 8.41733 131.004 8.47126 131.242 8.58361C131.48 8.69596 131.637 8.84427 131.718 9.03302C131.799 9.22177 131.813 9.44199 131.768 9.68467C131.723 9.92735 131.642 10.188 131.53 10.4576L120.223 37.5659C120.047 37.849 119.841 38.0917 119.602 38.2894C119.364 38.4872 119.009 38.5861 118.533 38.5861H115.706C115.072 38.5861 114.623 38.4962 114.362 38.3119C114.102 38.1322 113.908 37.8805 113.783 37.5614L102.83 10.7632H102.826Z" fill="#1D1D1B"/>
<path d="M164.835 36.8289C164.835 37.0986 164.786 37.3547 164.691 37.6019C164.597 37.8491 164.44 38.0423 164.215 38.1861C164.04 38.3614 163.833 38.4693 163.599 38.5187C163.361 38.5681 163.154 38.5906 162.979 38.5906H158.296C157.964 38.5906 157.694 38.5457 157.487 38.4603C157.281 38.3749 157.114 38.2491 156.989 38.0918C156.863 37.9345 156.755 37.7412 156.67 37.512C156.584 37.2828 156.49 37.0312 156.395 36.7615L156.085 35.6919C155.658 36.1189 155.168 36.5413 154.625 36.9503C154.076 37.3637 153.474 37.7322 152.818 38.0558C152.162 38.3794 151.456 38.64 150.701 38.8378C149.946 39.0355 149.169 39.1344 148.36 39.1344C146.917 39.1344 145.538 38.9501 144.216 38.5861C142.895 38.2221 141.659 37.7053 140.509 37.0312C139.358 36.357 138.32 35.5526 137.385 34.6089C136.451 33.6651 135.646 32.618 134.972 31.463C134.298 30.308 133.781 29.0587 133.417 27.7194C133.053 26.3802 132.869 24.9825 132.869 23.5265C132.869 21.3244 133.273 19.2796 134.082 17.3831C134.891 15.4911 135.992 13.8417 137.385 12.4396C138.779 11.0374 140.419 9.93639 142.302 9.13644C144.185 8.3365 146.207 7.93652 148.36 7.93652C149.34 7.93652 150.256 8.04887 151.106 8.26908C151.951 8.48929 152.728 8.7904 153.434 9.17239C154.139 9.55439 154.778 10.0083 155.348 10.5386C155.919 11.0689 156.418 11.6441 156.845 12.2598L157.532 10.0982C157.69 9.70269 157.82 9.38361 157.923 9.13644C158.027 8.88927 158.139 8.7095 158.256 8.58816C158.373 8.47132 158.521 8.39042 158.696 8.34998C158.872 8.30953 159.114 8.29155 159.433 8.29155H162.975C163.15 8.29155 163.357 8.31402 163.595 8.36346C163.833 8.41289 164.04 8.52075 164.211 8.69602C164.431 8.87129 164.593 9.06903 164.687 9.28924C164.781 9.50945 164.831 9.76561 164.831 10.0487V36.8244L164.835 36.8289ZM141.435 23.522C141.435 24.5691 141.596 25.5443 141.92 26.4566C142.244 27.3689 142.706 28.1554 143.309 28.8205C143.911 29.4856 144.634 30.0114 145.484 30.4024C146.329 30.7889 147.268 30.9866 148.297 30.9866C149.326 30.9866 150.342 30.7934 151.254 30.4024C152.166 30.0159 152.957 29.4856 153.632 28.8205C154.306 28.1554 154.831 27.3689 155.213 26.4566C155.595 25.5443 155.784 24.5691 155.784 23.522C155.784 22.4749 155.595 21.5401 155.213 20.6233C154.831 19.7065 154.306 18.8976 153.632 18.201C152.957 17.5044 152.166 16.9516 151.254 16.5517C150.342 16.1472 149.358 15.945 148.297 15.945C147.236 15.945 146.329 16.1472 145.484 16.5517C144.634 16.9561 143.911 17.5044 143.309 18.201C142.706 18.8976 142.244 19.7065 141.92 20.6233C141.596 21.5401 141.435 22.5063 141.435 23.522Z" fill="#1D1D1B"/>
<path d="M171.154 8.83984C171.361 8.66458 171.577 8.55672 171.806 8.50728C172.035 8.45785 172.255 8.43538 172.457 8.43538H176.044C176.327 8.43538 176.574 8.48481 176.781 8.58818C176.987 8.69154 177.163 8.83086 177.302 9.00163C177.446 9.1769 177.558 9.37464 177.648 9.59485C177.733 9.81506 177.819 10.0443 177.895 10.2824L178.394 12.3677C178.632 11.8778 179.014 11.3745 179.545 10.8532C180.075 10.3319 180.731 9.86 181.517 9.43307C182.299 9.00613 183.207 8.65559 184.236 8.37696C185.266 8.10282 186.416 7.9635 187.683 7.9635C189.49 7.9635 191.099 8.30954 192.519 9.00612C193.935 9.7027 195.139 10.651 196.132 11.8509C197.121 13.0508 197.876 14.4529 198.388 16.0573C198.905 17.6617 199.161 19.374 199.161 21.1986V36.7615C199.161 37.3637 199.031 37.8176 198.77 38.1277C198.51 38.4378 198.092 38.5906 197.521 38.5906H192.034C191.35 38.5906 190.883 38.4783 190.631 38.2446C190.38 38.0154 190.249 37.566 190.249 36.9008V21.4322C190.249 20.7536 190.097 20.1065 189.787 19.4953C189.476 18.8841 189.068 18.3493 188.564 17.8819C188.056 17.4145 187.481 17.046 186.843 16.7764C186.2 16.5067 185.549 16.3719 184.884 16.3719C184.313 16.3719 183.733 16.4977 183.135 16.7539C182.542 17.0056 181.994 17.3606 181.495 17.81C180.996 18.2594 180.578 18.7942 180.237 19.4009C179.895 20.0121 179.702 20.6727 179.657 21.3828V36.8244C179.657 37.0941 179.603 37.3637 179.504 37.6334C179.401 37.903 179.248 38.1098 179.041 38.2491C178.834 38.3749 178.641 38.4648 178.457 38.5097C178.273 38.5592 178.066 38.5816 177.828 38.5816H172.457C171.774 38.5816 171.284 38.4154 170.983 38.0828C170.682 37.7502 170.534 37.3053 170.534 36.7525V10.1836C170.534 9.88247 170.601 9.60833 170.736 9.35666C170.871 9.10499 171.055 8.90726 171.293 8.76345L171.15 8.83535L171.154 8.83984Z" fill="#1D1D1B"/>
<path d="M206.698 3.70761C206.698 3.21776 206.86 2.84924 207.183 2.60207C207.507 2.3549 207.97 2.1212 208.572 1.90099L213.965 0.0224683C214.046 0.00898609 214.118 0 214.189 0H214.392C214.976 0 215.371 0.170775 215.569 0.512324C215.767 0.853874 215.866 1.29879 215.866 1.85605L215.843 8.39044H219.097C219.605 8.39044 220.014 8.54323 220.333 8.83984C220.652 9.14095 220.809 9.59035 220.809 10.1926V14.7765C220.809 15.4416 220.652 15.927 220.333 16.2371C220.014 16.5472 219.605 16.7 219.097 16.7H215.843L215.866 36.7525C215.866 37.3547 215.69 37.8086 215.344 38.1187C214.994 38.4288 214.513 38.5816 213.893 38.5816H208.522C207.305 38.5816 206.693 37.9704 206.693 36.7525L206.671 16.7H204.226C203.008 16.7 202.397 16.0573 202.397 14.7765V10.1926C202.397 8.98815 203.008 8.38594 204.226 8.38594H206.671L206.693 3.70761H206.698Z" fill="#1D1D1B"/>
<path d="M96.8325 43.0668H98.1088V53.3986H96.8325V43.0668Z" fill="#1D1D1B"/>
<path d="M100.369 45.6328H101.583V46.8776C102.167 45.9429 103.048 45.4755 104.23 45.4755C105.173 45.4755 105.888 45.7541 106.364 46.3114C106.841 46.8686 107.083 47.6551 107.083 48.6618V53.3985H105.87V48.855C105.87 48.1315 105.717 47.5832 105.416 47.2147C105.115 46.8417 104.612 46.6574 103.91 46.6574C103.272 46.6574 102.724 46.8821 102.27 47.336C101.812 47.7854 101.583 48.3607 101.583 49.0483V53.403H100.369V45.6373V45.6328Z" fill="#1D1D1B"/>
<path d="M107.82 45.6328H109.079L111.245 50.5763L111.802 52.1223C111.973 51.547 112.157 51.0392 112.359 50.5898L114.53 45.6328H115.788L112.359 53.4435H111.245L107.816 45.6328H107.82Z" fill="#1D1D1B"/>
<path d="M117.388 46.6619C118.143 45.8709 119.06 45.4755 120.148 45.4755C121.168 45.4755 122.044 45.8709 122.777 46.6529C123.509 47.4349 123.878 48.3741 123.878 49.4572L123.846 49.965H117.532C117.627 50.7111 117.941 51.3088 118.471 51.7672C119.002 52.2256 119.631 52.4548 120.354 52.4548C121.289 52.4548 122.085 52.1582 122.745 51.5604L123.321 52.4368C122.44 53.1828 121.451 53.5513 120.354 53.5513C119.258 53.5513 118.251 53.1738 117.451 52.4188C116.651 51.6638 116.256 50.6976 116.256 49.5156C116.256 48.4011 116.633 47.4439 117.388 46.6529V46.6619ZM122.651 49.0123C122.575 48.3022 122.296 47.7135 121.815 47.2506C121.33 46.7877 120.759 46.5585 120.103 46.5585C119.447 46.5585 118.885 46.7922 118.395 47.2596C117.905 47.727 117.613 48.3112 117.519 49.0123H122.651Z" fill="#1D1D1B"/>
<path d="M125.774 51.3719C126.421 52.0415 127.235 52.3785 128.214 52.3785C128.767 52.3785 129.23 52.2707 129.603 52.0505C129.976 51.8348 130.16 51.5471 130.16 51.1966C130.16 51.0168 130.111 50.8551 130.007 50.7202C129.904 50.5854 129.751 50.4641 129.545 50.3697C129.338 50.2753 129.145 50.1989 128.969 50.145C128.794 50.0911 128.556 50.0281 128.259 49.9517C127.823 49.8439 127.477 49.745 127.217 49.6551C126.956 49.5652 126.677 49.4349 126.381 49.2641C126.084 49.0934 125.864 48.8777 125.729 48.617C125.59 48.3563 125.522 48.0463 125.522 47.6822C125.522 47.0216 125.81 46.4868 126.385 46.0779C126.96 45.6689 127.603 45.4622 128.313 45.4622C129.257 45.4622 130.151 45.7498 130.992 46.325L130.403 47.2643C129.796 46.8508 129.104 46.6441 128.331 46.6441C127.918 46.6441 127.554 46.743 127.239 46.9407C126.925 47.1385 126.767 47.3811 126.767 47.6643C126.767 47.835 126.808 47.9833 126.893 48.1092C126.978 48.235 127.122 48.3474 127.333 48.4372C127.54 48.5271 127.715 48.59 127.859 48.6305C128.003 48.6709 128.228 48.7249 128.538 48.7968C128.965 48.8911 129.315 48.99 129.598 49.0934C129.882 49.1967 130.174 49.3316 130.484 49.5068C130.794 49.6821 131.023 49.9068 131.176 50.1854C131.329 50.4641 131.405 50.7876 131.405 51.1562C131.405 51.9336 131.086 52.5224 130.448 52.9358C129.81 53.3448 129.073 53.5515 128.232 53.5515C126.969 53.5515 125.954 53.147 125.185 52.3381L125.774 51.3674V51.3719Z" fill="#1D1D1B"/>
<path d="M133.428 46.6664H132.264V45.6282H133.428V43.907L134.641 43.7137V45.6282H137.302V46.6664H134.641V50.8413C134.641 51.9244 135.01 52.4682 135.742 52.4682C135.953 52.4682 136.169 52.4323 136.38 52.3559C136.591 52.2795 136.753 52.212 136.857 52.1491L137.014 52.0368L137.414 52.976C136.852 53.358 136.254 53.5513 135.63 53.5513C134.951 53.5513 134.412 53.3445 134.021 52.9356C133.625 52.5266 133.432 51.902 133.432 51.0616V46.6619L133.428 46.6664Z" fill="#1D1D1B"/>
<path d="M138.888 42.9678C139.041 42.8105 139.23 42.7296 139.454 42.7296C139.679 42.7296 139.868 42.8105 140.021 42.9678C140.173 43.1296 140.25 43.3183 140.25 43.543C140.25 43.7677 140.173 43.943 140.021 44.1003C139.868 44.2576 139.679 44.3385 139.454 44.3385C139.23 44.3385 139.041 44.2576 138.888 44.1003C138.735 43.9385 138.659 43.7543 138.659 43.543C138.659 43.3318 138.735 43.1296 138.888 42.9678ZM138.834 45.6283H140.048V53.3941H138.834V45.6283Z" fill="#1D1D1B"/>
<path d="M142.151 45.6329H143.364V46.8777C143.621 46.4328 143.967 46.0868 144.403 45.8396C144.838 45.5969 145.31 45.4711 145.823 45.4711C147.076 45.4711 147.912 45.9879 148.326 47.017C148.591 46.5272 148.973 46.1497 149.467 45.8755C149.962 45.6059 150.474 45.4711 151.004 45.4711C151.948 45.4711 152.663 45.7452 153.139 46.2935C153.615 46.8418 153.858 47.6237 153.858 48.6439V53.3941H152.645V48.8506C152.645 48.1495 152.505 47.6058 152.222 47.2238C151.939 46.8418 151.449 46.6485 150.748 46.6485C150.132 46.6485 149.62 46.8552 149.216 47.2642C148.811 47.6732 148.609 48.208 148.609 48.8686V53.3986H147.396V48.8551C147.396 48.154 147.256 47.6103 146.973 47.2283C146.69 46.8463 146.2 46.653 145.499 46.653C144.892 46.653 144.385 46.8777 143.976 47.3226C143.567 47.7675 143.36 48.3203 143.36 48.9809V53.3986H142.146V45.6329H142.151Z" fill="#1D1D1B"/>
<path d="M156.532 46.6619C157.287 45.8709 158.203 45.4755 159.291 45.4755C160.311 45.4755 161.188 45.8709 161.92 46.6529C162.653 47.4349 163.021 48.3741 163.021 49.4572L162.99 49.965H156.675C156.77 50.7111 157.084 51.3088 157.615 51.7672C158.145 52.2256 158.774 52.4548 159.498 52.4548C160.433 52.4548 161.228 52.1582 161.889 51.5604L162.464 52.4368C161.583 53.1828 160.594 53.5513 159.498 53.5513C158.401 53.5513 157.395 53.1738 156.595 52.4188C155.795 51.6638 155.399 50.6976 155.399 49.5156C155.399 48.4011 155.777 47.4439 156.532 46.6529V46.6619ZM161.794 49.0123C161.718 48.3022 161.439 47.7135 160.958 47.2506C160.473 46.7877 159.902 46.5585 159.246 46.5585C158.59 46.5585 158.028 46.7922 157.538 47.2596C157.048 47.727 156.756 48.3112 156.662 49.0123H161.794Z" fill="#1D1D1B"/>
<path d="M164.729 45.6328H165.942V46.8776C166.526 45.9429 167.407 45.4755 168.589 45.4755C169.537 45.4755 170.247 45.7541 170.724 46.3114C171.2 46.8686 171.443 47.6551 171.443 48.6618V53.3985H170.23V48.855C170.23 48.1315 170.077 47.5832 169.776 47.2147C169.475 46.8417 168.971 46.6574 168.27 46.6574C167.632 46.6574 167.084 46.8821 166.63 47.336C166.171 47.7854 165.942 48.3607 165.942 49.0483V53.403H164.729V45.6373V45.6328Z" fill="#1D1D1B"/>
<path d="M173.708 46.6664H172.544V45.6282H173.708V43.907L174.921 43.7137V45.6282H177.582V46.6664H174.921V50.8413C174.921 51.9244 175.29 52.4682 176.022 52.4682C176.234 52.4682 176.449 52.4323 176.661 52.3559C176.872 52.2795 177.034 52.212 177.137 52.1491L177.294 52.0368L177.694 52.976C177.132 53.358 176.535 53.5513 175.91 53.5513C175.231 53.5513 174.692 53.3445 174.301 52.9356C173.906 52.5266 173.712 51.902 173.712 51.0616V46.6619L173.708 46.6664Z" fill="#1D1D1B"/>
<path d="M179.703 46.6619C180.498 45.8709 181.46 45.4755 182.588 45.4755C183.716 45.4755 184.678 45.8709 185.473 46.6619C186.269 47.4529 186.669 48.4056 186.669 49.5246C186.669 50.6437 186.269 51.5784 185.473 52.3694C184.678 53.1603 183.716 53.5558 182.588 53.5558C181.46 53.5558 180.498 53.1603 179.703 52.3694C178.908 51.5784 178.508 50.6302 178.508 49.5246C178.508 48.4191 178.908 47.4529 179.703 46.6619ZM180.579 51.5425C181.132 52.0997 181.802 52.3784 182.588 52.3784C183.375 52.3784 184.044 52.0997 184.597 51.5425C185.15 50.9852 185.424 50.3111 185.424 49.5246C185.424 48.7382 185.145 48.0641 184.597 47.5023C184.044 46.9405 183.375 46.6574 182.588 46.6574C181.802 46.6574 181.132 46.9405 180.579 47.5023C180.027 48.0641 179.752 48.7382 179.752 49.5246C179.752 50.3111 180.031 50.9852 180.579 51.5425Z" fill="#1D1D1B"/>
<path d="M188.57 51.3719C189.217 52.0415 190.031 52.3785 191.01 52.3785C191.563 52.3785 192.026 52.2707 192.399 52.0505C192.772 51.8348 192.956 51.5471 192.956 51.1966C192.956 51.0168 192.907 50.8551 192.804 50.7202C192.7 50.5854 192.547 50.4641 192.341 50.3697C192.134 50.2753 191.941 50.1989 191.765 50.145C191.59 50.0911 191.352 50.0281 191.055 49.9517C190.619 49.8439 190.273 49.745 190.013 49.6551C189.752 49.5652 189.473 49.4349 189.177 49.2641C188.88 49.0934 188.66 48.8777 188.525 48.617C188.386 48.3563 188.319 48.0463 188.319 47.6822C188.319 47.0216 188.606 46.4868 189.181 46.0779C189.757 45.6689 190.399 45.4622 191.109 45.4622C192.053 45.4622 192.947 45.7498 193.788 46.325L193.199 47.2643C192.592 46.8508 191.9 46.6441 191.127 46.6441C190.714 46.6441 190.35 46.743 190.035 46.9407C189.721 47.1385 189.563 47.3811 189.563 47.6643C189.563 47.835 189.604 47.9833 189.689 48.1092C189.775 48.235 189.918 48.3474 190.13 48.4372C190.336 48.5271 190.512 48.59 190.655 48.6305C190.799 48.6709 191.024 48.7249 191.334 48.7968C191.761 48.8911 192.111 48.99 192.395 49.0934C192.678 49.1967 192.97 49.3316 193.28 49.5068C193.59 49.6821 193.819 49.9068 193.972 50.1854C194.125 50.4641 194.201 50.7876 194.201 51.1562C194.201 51.9336 193.882 52.5224 193.244 52.9358C192.606 53.3448 191.869 53.5515 191.028 53.5515C189.766 53.5515 188.75 53.147 187.981 52.3381L188.57 51.3674V51.3719Z" fill="#1D1D1B"/>
<defs>
<linearGradient id="paint0_linear_6_3726" x1="26.4023" y1="46.3292" x2="26.4023" y2="27.6024" gradientUnits="userSpaceOnUse">
<stop offset="0.6" stop-color="white"/>
<stop offset="1" stop-color="#232021"/>
</linearGradient>
<linearGradient id="paint1_linear_6_3726" x1="16.3495" y1="43.8753" x2="26.3579" y2="26.5372" gradientUnits="userSpaceOnUse">
<stop offset="0.38" stop-color="#EC751E"/>
<stop offset="1" stop-color="#974D0F"/>
</linearGradient>
<linearGradient id="paint2_linear_6_3726" x1="42.9679" y1="43.8753" x2="32.9551" y2="26.5372" gradientUnits="userSpaceOnUse">
<stop offset="0.38" stop-color="#EC751E"/>
<stop offset="1" stop-color="#974D0F"/>
</linearGradient>
</defs>
</svg>
